<svg width="268" height="118" viewBox="0 0 268 118" fill="none" xmlns="http://www.w3.org/2000/svg">
<path d="M6.38885 41.555C3.08412 29.371 11.7553 17.2105 24.3512 16.3645L235.109 2.20913C250.087 1.20312 260.793 16.4434 254.767 30.1928L222.535 103.73C218.961 111.886 210.424 116.696 201.595 115.528L33.1313 93.2454C25.1384 92.1882 18.5619 86.435 16.4513 78.6536L6.38885 41.555Z" fill="#1E1E1E"/>
<path d="M23.6802 54.8803C22.2913 55.1235 20.8847 55.0043 19.4603 54.5227C18.0654 54.036 16.8198 53.0968 15.7233 51.705C14.6269 50.3133 13.8613 48.3763 13.4267 45.894C12.9455 43.1459 12.959 40.8745 13.4671 39.08C14.0047 37.2803 14.859 35.8972 16.0299 34.9308C17.1956 33.9348 18.4729 33.3152 19.8617 33.0721C21.9598 32.7047 23.4684 32.6233 24.3874 32.8279C25.336 33.0272 25.8103 33.1269 25.8103 33.1269L23.9002 24.827L23.8778 22.0898L31.9008 20.6851L36.1461 44.9312L37.8087 49.2086L37.3956 52.0677L29.8159 53.3948L29.4356 51.2229L28.9536 51.0788C28.9536 51.0788 28.7733 51.354 28.4129 51.9045C28.0472 52.4253 27.4773 52.9972 26.7031 53.62C25.929 54.2429 24.9213 54.663 23.6802 54.8803ZM25.9103 48.0483L28.2396 47.0009L27.1064 40.5293C26.9874 39.8497 26.6727 39.3566 26.1622 39.05C25.6465 38.7139 25.0192 38.6106 24.2805 38.7399C23.1871 38.9313 22.4244 39.4456 21.9923 40.2827C21.555 41.0902 21.4812 42.3214 21.771 43.9762C22.0555 45.6015 22.5876 46.7266 23.367 47.3515C24.1465 47.9764 24.9942 48.2087 25.9103 48.0483Z" fill="#05BB9A"/>
<path d="M77.4712 98.5369C75.6712 98.5369 74.2762 98.1919 73.2862 97.5019C72.3262 96.8119 71.6512 95.8219 71.2612 94.5319C70.9012 93.2119 70.7212 91.6369 70.7212 89.8069V76.8019H78.8212V88.6369C78.8212 89.7469 79.0312 90.6169 79.4512 91.2469C79.9012 91.8769 80.5612 92.1919 81.4312 92.1919C82.2412 92.1919 82.9762 91.8469 83.6362 91.1569C84.3262 90.4669 84.6712 89.4619 84.6712 88.1419V76.8019H92.7712V90.8419L93.7162 95.3419L92.7712 98.0869H85.1662V95.8819L84.7162 95.6569C84.3262 96.0469 83.7562 96.4669 83.0062 96.9169C82.2862 97.3669 81.4462 97.7569 80.4862 98.0869C79.5562 98.3869 78.5512 98.5369 77.4712 98.5369Z" fill="#05BB9A"/>
<path d="M100.844 61.45C99.0442 61.45 97.6492 61.105 96.6592 60.415C95.6992 59.725 95.0242 58.735 94.6342 57.445C94.2742 56.125 94.0942 54.55 94.0942 52.72V39.715H102.194V51.55C102.194 52.66 102.404 53.53 102.824 54.16C103.274 54.79 103.934 55.105 104.804 55.105C105.614 55.105 106.349 54.76 107.009 54.07C107.699 53.38 108.044 52.375 108.044 51.055V39.715H116.144V53.755L117.089 58.255L116.144 61H108.539V58.795L108.089 58.57C107.699 58.96 107.129 59.38 106.379 59.83C105.659 60.28 104.819 60.67 103.859 61C102.929 61.3 101.924 61.45 100.844 61.45Z" fill="#05BB9A"/>
<path d="M169.245 71.6351L165.215 64.5923L172.215 60.5511L176.256 67.5506L169.245 71.6351ZM159.498 92.3637L163.353 77.9763L163.372 74.2543L164.952 71.8358L172.819 73.9439L167.322 94.4602L159.498 92.3637Z" fill="#05BB9A"/>
<path d="M188.512 30.6741L184.482 23.6312L191.482 19.5901L195.523 26.5895L188.512 30.6741ZM178.765 51.4027L182.62 37.0152L182.639 33.2933L184.219 30.8748L192.086 32.9828L186.589 53.4991L178.765 51.4027Z" fill="#05BB9A"/>
<path d="M34.3373 66.5336L28.9751 62.4632L32.726 56.6213L38.182 60.2493C39.4111 60.641 40.402 60.5947 41.1546 60.1103C41.9266 59.6637 42.6378 58.9142 43.288 57.862L38.8718 56.4546L38.8286 40.2882L39.7903 34.4547L47.9366 37.0509L45.7856 51.9513L46.6431 52.2246L53.5104 38.8272L61.6567 41.4234C61.6567 41.4234 61.4109 41.8488 60.9193 42.6997C60.4655 43.5312 59.8302 44.6354 59.0135 46.0124C58.2254 47.3986 57.3157 48.9192 56.2845 50.5742C55.291 52.2097 54.2597 53.8647 53.1908 55.5392C52.131 57.1851 51.1025 58.6836 50.1052 60.0345C48.5773 62.161 47.0244 63.8229 45.4463 65.0203C43.8968 66.2268 42.2319 66.9556 40.4515 67.2069C38.6621 67.4868 36.624 67.2623 34.3373 66.5336Z" fill="#C2B4FE"/>
<path d="M181.682 98.5369C178.022 98.5369 175.187 97.6669 173.177 95.9269C171.167 94.1869 170.162 91.3669 170.162 87.4669C170.162 83.5369 171.167 80.7169 173.177 79.0069C175.187 77.2669 178.022 76.3969 181.682 76.3969C185.432 76.3969 188.267 77.2669 190.187 79.0069C192.137 80.7169 193.112 83.5369 193.112 87.4669C193.112 91.3669 192.137 94.1869 190.187 95.9269C188.267 97.6669 185.432 98.5369 181.682 98.5369ZM181.682 92.6869C182.912 92.6869 183.767 92.2369 184.247 91.3369C184.727 90.4069 184.967 89.1169 184.967 87.4669C184.967 85.7869 184.727 84.4969 184.247 83.5969C183.767 82.6969 182.912 82.2469 181.682 82.2469C180.422 82.2469 179.537 82.6969 179.027 83.5969C178.547 84.4969 178.307 85.7869 178.307 87.4669C178.307 89.1169 178.547 90.4069 179.027 91.3369C179.537 92.2369 180.422 92.6869 181.682 92.6869Z" fill="#C2B4FE"/>
<path d="M191.536 93.6034L196.063 80.8375L196.869 75.8714L199.102 73.7506L205.421 75.9918L204.774 77.8155L205.066 78.2054C205.477 78.0329 206.016 77.8582 206.684 77.6811C207.39 77.4859 208.194 77.3731 209.096 77.3429C209.998 77.3126 210.944 77.473 211.933 77.824C214.478 78.7265 216.131 80.1243 216.892 82.0176C217.653 83.9108 217.572 86.1581 216.649 88.7593L214.739 94.1456L214.125 98.7027L212.317 100.974L204.683 98.2664L208.624 87.1545C209.005 86.0801 209.056 85.1749 208.775 84.4389C208.534 83.6847 207.918 83.1321 206.928 82.7812L204.013 82.6544L199.17 96.3109L191.536 93.6034Z" fill="#F9C904"/>
<path d="M118.552 55.8849L113.823 43.1921L111.252 38.8677L111.601 35.8084L117.884 33.4677L118.56 35.2809L119.033 35.3925C119.238 34.9962 119.539 34.5158 119.937 33.9514C120.353 33.3483 120.896 32.7456 121.568 32.1431C122.24 31.5406 123.068 31.0561 124.052 30.6895C126.582 29.7469 128.747 29.7568 130.546 30.7193C132.345 31.6817 133.727 33.4561 134.69 36.0424L136.685 41.3979L139.142 45.2848L139.215 48.187L131.624 51.0148L127.508 39.9666C127.11 38.8983 126.568 38.1721 125.88 37.7879C125.211 37.3651 124.384 37.337 123.4 37.7035L121.084 39.4788L126.142 53.0571L118.552 55.8849Z" fill="#C2B4FE"/>
<path d="M200.949 57.5759C197.289 57.5759 194.454 56.7059 192.444 54.9659C190.434 53.2259 189.429 50.4059 189.429 46.5059C189.429 42.5759 190.434 39.7559 192.444 38.0459C194.454 36.3059 197.289 35.4359 200.949 35.4359C204.699 35.4359 207.534 36.3059 209.454 38.0459C211.404 39.7559 212.379 42.5759 212.379 46.5059C212.379 50.4059 211.404 53.2259 209.454 54.9659C207.534 56.7059 204.699 57.5759 200.949 57.5759ZM200.949 51.7259C202.179 51.7259 203.034 51.2759 203.514 50.3759C203.994 49.4459 204.234 48.1559 204.234 46.5059C204.234 44.8259 203.994 43.5359 203.514 42.6359C203.034 41.7359 202.179 41.2859 200.949 41.2859C199.689 41.2859 198.804 41.7359 198.294 42.6359C197.814 43.5359 197.574 44.8259 197.574 46.5059C197.574 48.1559 197.814 49.4459 198.294 50.3759C198.804 51.2759 199.689 51.7259 200.949 51.7259Z" fill="#C2B4FE"/>
<path d="M73.8173 55.7969C71.7124 56.4015 69.7905 56.7195 68.0516 56.7508C66.3126 56.7821 64.9299 56.6955 63.9036 56.4909L62.1767 50.479C63.508 50.6584 64.8349 50.7142 66.1576 50.6464C67.5091 50.5703 68.7061 50.445 69.7484 50.2705C70.7824 50.0671 71.5157 49.9033 71.9482 49.779C72.4384 49.6382 72.7637 49.4668 72.9241 49.2646C73.0763 49.0336 73.1192 48.8028 73.0529 48.5721C72.9618 48.255 72.6278 48.07 72.0508 48.0172C71.4655 47.9357 70.4023 47.9289 68.8612 47.997C67.5962 48.0483 66.3393 48.0192 65.0906 47.9097C63.8624 47.7631 62.7719 47.3896 61.8191 46.7893C60.8952 46.1807 60.2386 45.1989 59.8493 43.8437C59.3689 42.1713 59.3813 40.7475 59.8865 39.5724C60.3917 38.3972 61.3113 37.4152 62.6454 36.6262C63.9711 35.8084 65.5999 35.122 67.5318 34.5671C68.6275 34.2524 69.6677 34.016 70.6523 33.858C71.637 33.7 72.3394 33.5919 72.7597 33.5336L77.5274 34.9733L76.9105 40.1602L68.8694 40.6908C67.9467 40.9558 67.5724 41.3911 67.7463 41.9966C67.9285 42.631 68.7284 42.9163 70.1458 42.8524C71.2501 42.7849 72.3915 42.738 73.57 42.7116C74.7403 42.6564 75.8344 42.7166 76.8525 42.8924C77.8995 43.0598 78.8004 43.4253 79.5553 43.9888C80.339 44.544 80.9007 45.4127 81.2403 46.5949C81.8697 48.7863 81.5489 50.6576 80.2778 52.2088C79.0272 53.7229 76.8737 54.919 73.8173 55.7969Z" fill="#F9C904"/>
<path d="M99.2845 96.8458L94.5558 84.1531L91.9844 79.8287L92.3333 76.7694L98.6164 74.4286L99.2919 76.2419L99.7657 76.3535C99.9702 75.9572 100.271 75.4768 100.669 74.9123C101.085 74.3093 101.629 73.7065 102.301 73.104C102.973 72.5015 103.801 72.017 104.785 71.6504C107.315 70.7079 109.479 70.7178 111.279 71.6802C113.078 72.6427 114.459 74.417 115.423 77.0034L117.418 82.3588L119.874 86.2458L119.947 89.148L112.357 91.9758L108.241 80.9276C107.843 79.8593 107.3 79.133 106.613 78.7488C105.943 78.3261 105.116 78.2979 104.132 78.6645L101.816 80.4397L106.875 94.018L99.2845 96.8458Z" fill="#C2B4FE"/>
<path d="M127.537 94.2517C125.538 93.7159 123.816 92.8974 122.372 91.7961C120.956 90.7026 119.98 89.2453 119.443 87.4242C118.935 85.611 119.039 83.3714 119.753 80.7054C120.475 78.0105 121.549 76.031 122.975 74.7669C124.408 73.4739 126.026 72.7115 127.827 72.4798C129.628 72.2482 131.442 72.3769 133.267 72.8661C134.861 73.2931 136.208 73.716 137.307 74.1348C138.435 74.5613 139.175 74.8684 139.529 75.0563L141.894 79.7898L137.147 83.5959L132.941 79.3008C130.449 78.6331 128.791 79.835 127.968 82.9067C127.541 84.5004 127.603 85.775 128.155 86.7303C128.714 87.6566 129.776 88.3294 131.341 88.7487C132.906 89.168 134.369 89.3272 135.732 89.2264C137.094 89.1257 138.174 88.9801 138.97 88.7897L137.293 95.0489C136.271 95.2719 134.974 95.3592 133.403 95.3109C131.869 95.2415 129.913 94.8884 127.537 94.2517Z" fill="#F9C904"/>
<path d="M146.804 53.2906C144.805 52.7549 143.083 51.9363 141.639 50.835C140.224 49.7415 139.247 48.2842 138.71 46.4632C138.202 44.6499 138.306 42.4103 139.02 39.7443C139.742 37.0494 140.816 35.0699 142.242 33.8059C143.675 32.5128 145.293 31.7505 147.094 31.5188C148.895 31.2871 150.709 31.4159 152.534 31.905C154.128 32.3321 155.475 32.755 156.574 33.1737C157.702 33.6002 158.443 33.9074 158.796 34.0953L161.161 38.8288L156.415 42.6349L152.208 38.3398C149.716 37.672 148.058 38.874 147.235 41.9456C146.808 43.5394 146.87 44.8139 147.422 45.7692C147.981 46.6955 149.043 47.3684 150.608 47.7876C152.173 48.2069 153.637 48.3662 154.999 48.2654C156.362 48.1646 157.441 48.019 158.237 47.8287L156.56 54.0879C155.538 54.3108 154.241 54.3981 152.67 54.3499C151.136 54.2804 149.18 53.9273 146.804 53.2906Z" fill="#F9C904"/>
<path d="M217.783 58.939L213.486 46.0937L211.062 41.6849L211.514 38.6392L217.873 36.512L218.487 38.3471L218.957 38.4746C219.175 38.0854 219.492 37.6155 219.909 37.0648C220.344 36.4761 220.908 35.8921 221.6 35.3127C222.292 34.7332 223.136 34.2769 224.132 33.9438C226.692 33.0872 228.855 33.1703 230.621 34.193C232.387 35.2156 233.707 37.0357 234.583 39.6531L236.396 45.0729L238.72 49.0406L238.694 51.9436L231.013 54.5134L227.272 43.3324C226.911 42.2513 226.393 41.5071 225.719 41.0999C225.064 40.6548 224.238 40.5987 223.243 40.9318L220.868 42.6278L225.465 56.3693L217.783 58.939Z" fill="#F9C904"/>
<path d="M81.6555 57V42.42L79.2705 37.92L81.6555 35.76C81.5055 35.25 81.3855 34.575 81.2955 33.735C81.2355 32.865 81.2055 32.16 81.2055 31.62C81.2055 29.91 81.5955 28.41 82.3755 27.12C83.1855 25.83 84.2955 24.825 85.7055 24.105C87.1155 23.355 88.7055 22.98 90.4755 22.98C91.3155 22.98 92.2005 23.025 93.1305 23.115C94.0905 23.175 94.9155 23.295 95.6055 23.475L100.421 26.22L96.9555 32.475L91.7805 29.325C90.7605 29.325 90.0105 29.7 89.5305 30.45C89.0505 31.17 88.8105 31.98 88.8105 32.88C88.8105 33.54 88.9155 34.125 89.1255 34.635C89.3355 35.145 89.5455 35.52 89.7555 35.76H96.9555V41.16H89.7555V49.71L90.2055 54.255L89.7555 57H81.6555Z" fill="#E65600"/>
<path d="M153.612 95.2016C151.581 95.3927 149.897 94.9486 148.56 93.8692C147.223 92.7897 146.469 91.339 146.297 89.5171L145.378 79.7502L142.107 80.0581L141.707 75.8019L144.322 73.3409L146.98 67.4861L152.267 66.9884L152.879 73.4847L159.151 72.8943L159.699 78.7186L153.427 79.309L154.329 88.8966L160.597 88.2614L161.057 93.1448C161.057 93.1448 160.71 93.298 160.015 93.6044C159.348 93.8782 158.457 94.173 157.342 94.4889C156.229 94.8347 154.986 95.0722 153.612 95.2016Z" fill="#E65600"/>
<path d="M172.88 54.2404C170.849 54.4316 169.164 53.9874 167.827 52.908C166.49 51.8285 165.736 50.3778 165.565 48.5559L164.645 38.7891L161.375 39.0969L160.974 34.8407L163.59 32.3798L166.248 26.5249L171.535 26.0273L172.146 32.5236L178.418 31.9332L178.967 37.7574L172.694 38.3478L173.597 47.9354L179.865 47.3002L180.325 52.1836C180.325 52.1836 179.977 52.3369 179.283 52.6433C178.616 52.917 177.724 53.2118 176.609 53.5278C175.497 53.8735 174.253 54.1111 172.88 54.2404Z" fill="#E65600"/>
<path d="M59.2378 72.6632L52.1147 68.7773L55.9574 61.6671L63.0677 65.5098L59.2378 72.6632ZM63.1729 106.474C62.6554 106.629 62.0532 106.761 61.3663 106.872C60.7167 107.004 60.116 107.089 59.5642 107.128L56.864 105.633L57.4892 99.858L61.7213 100.192C62.3825 99.9948 62.7638 99.6463 62.8652 99.1465C62.9751 98.6754 62.9127 98.0991 62.6782 97.4178C62.4522 96.7651 62.1745 96.0966 61.8451 95.4122L57.5741 81.0957L55.5107 77.4849L55.7299 75.0715L63.4919 72.7559L70.1171 94.9638C71.0176 97.9823 70.84 100.43 69.5843 102.308C68.3573 104.176 66.2201 105.565 63.1729 106.474Z" fill="#E65600"/>
</svg>
